<svg width="16" height="17" viewBox="0 0 16 17" fill="none" xmlns="http://www.w3.org/2000/svg">
<path d="M2.24549 13.06C1.86898 13.06 1.5497 13.0109 1.28765 12.9127C1.0256 12.8174 0.811749 12.6845 0.646086 12.5141C0.480423 12.3437 0.35994 12.1429 0.284639 11.9118C0.212349 11.6779 0.176205 11.4251 0.176205 11.1536C0.176205 11.015 0.179217 10.8431 0.185241 10.638C0.191265 10.4301 0.194278 10.1903 0.194278 9.91881C0.194278 9.6473 0.192771 9.34979 0.189759 9.02628C0.186747 8.69988 0.177711 8.37349 0.16265 8.04709C0.150602 7.72069 0.131024 7.4073 0.103916 7.1069C0.0798194 6.8065 0.0451808 6.54509 0 6.32268L1.35091 5.92841C1.39006 6.11904 1.42169 6.34434 1.44579 6.60431C1.4729 6.86138 1.49398 7.13145 1.50904 7.41452C1.5241 7.69759 1.53464 7.9821 1.54067 8.26806C1.5497 8.55401 1.55573 8.81975 1.55874 9.06527C1.56175 9.28191 1.55723 9.51009 1.54518 9.74984C1.53615 9.98669 1.52862 10.2149 1.52259 10.4344C1.51657 10.651 1.51808 10.8475 1.52711 11.0236C1.53916 11.1998 1.56777 11.3342 1.61296 11.4266C1.64006 11.493 1.6732 11.5436 1.71235 11.5782C1.75452 11.6129 1.80272 11.6389 1.85693 11.6562C1.91115 11.6736 1.96988 11.6837 2.03314 11.6865C2.0994 11.6894 2.17169 11.6909 2.25001 11.6909H2.37199V13.06H2.24549Z" fill="#535353"/>
<path d="M6.11032 13.047C5.9296 13.047 5.74285 13.0282 5.55008 12.9907C5.35731 12.956 5.16755 12.9084 4.9808 12.8477C4.79706 12.7871 4.61935 12.7177 4.44767 12.6397C4.27899 12.5589 4.12839 12.4765 3.99586 12.3928C3.89646 12.5199 3.78953 12.6267 3.67507 12.7134C3.56363 12.7972 3.44314 12.865 3.31363 12.917C3.18712 12.969 3.04857 13.0051 2.89796 13.0253C2.75037 13.0485 2.59073 13.06 2.41905 13.06H2.19314V11.6909H2.41905C2.61784 11.6909 2.78501 11.6519 2.92055 11.5739C3.0561 11.4959 3.17206 11.3963 3.26845 11.2749C3.36483 11.1507 3.44917 11.015 3.52146 10.8677C3.59676 10.7175 3.67357 10.5716 3.75188 10.4301C3.84224 10.2539 3.94315 10.0777 4.05459 9.90148C4.16905 9.72528 4.30008 9.56642 4.44767 9.42489C4.59526 9.28335 4.76092 9.16926 4.94465 9.0826C5.1314 8.99306 5.34074 8.94829 5.57267 8.94829C5.88893 8.94829 6.16002 9.01906 6.38592 9.16059C6.61484 9.29924 6.80309 9.48265 6.95068 9.71084C7.09827 9.93614 7.20671 10.1932 7.27599 10.4821C7.34828 10.768 7.38442 11.0569 7.38442 11.3486C7.38442 11.5941 7.34677 11.8209 7.27147 12.0288C7.19617 12.2368 7.09827 12.4159 6.97779 12.5661C6.85731 12.7163 6.72026 12.8333 6.56665 12.917C6.41605 13.0037 6.26394 13.047 6.11032 13.047ZM5.53201 10.2698C5.44466 10.2698 5.36333 10.303 5.28803 10.3694C5.21273 10.433 5.14194 10.5124 5.07568 10.6077C5.00941 10.703 4.94917 10.807 4.89496 10.9197C4.84375 11.0323 4.79706 11.1363 4.7549 11.2316C4.85429 11.2923 4.96725 11.3486 5.09375 11.4006C5.22026 11.4526 5.35128 11.4988 5.48683 11.5392C5.62237 11.5768 5.75942 11.6086 5.89797 11.6346C6.03653 11.6606 6.16906 11.6793 6.29556 11.6909C6.31062 11.5147 6.30159 11.3414 6.26845 11.171C6.23532 11.0005 6.18261 10.8489 6.11032 10.716C6.04104 10.5832 5.95671 10.4763 5.85731 10.3954C5.75791 10.3116 5.64948 10.2698 5.53201 10.2698Z" fill="#535353"/>
<path d="M7.67684 14.7801C8.10154 14.6992 8.48859 14.5967 8.83799 14.4725C9.18739 14.3512 9.49311 14.2139 9.75516 14.0609C10.0202 13.9107 10.2386 13.7504 10.4103 13.5799C10.585 13.4095 10.7085 13.2362 10.7808 13.06C10.6512 13.06 10.5142 13.0571 10.3696 13.0513C10.225 13.0485 10.1061 13.0441 10.0127 13.0383C9.7145 13.0152 9.44341 12.9604 9.19944 12.8737C8.95546 12.7899 8.74462 12.6744 8.56691 12.5271C8.39221 12.3769 8.25666 12.1949 8.16028 11.9812C8.06389 11.7674 8.0157 11.5219 8.0157 11.2446C8.0157 11.0684 8.03528 10.8879 8.07443 10.703C8.11359 10.5182 8.16931 10.3376 8.2416 10.1614C8.31691 9.98525 8.40877 9.81916 8.51721 9.66318C8.62865 9.50721 8.75365 9.37 8.89221 9.25158C9.03076 9.13315 9.18287 9.04072 9.34853 8.97429C9.51721 8.90496 9.69793 8.8703 9.8907 8.8703C10.1196 8.8703 10.3305 8.91074 10.5232 8.99162C10.716 9.0696 10.8922 9.17648 11.0519 9.31224C11.2145 9.44799 11.3576 9.6083 11.4811 9.79316C11.6076 9.97514 11.716 10.1716 11.8064 10.3824C11.8997 10.5904 11.975 10.807 12.0323 11.0323C12.0925 11.2547 12.1347 11.4742 12.1588 11.6909H12.3531V13.06H12.0639C11.9464 13.4846 11.7582 13.8688 11.4991 14.2125C11.2431 14.5591 10.9359 14.861 10.5775 15.118C10.219 15.3751 9.81992 15.5874 9.38016 15.7549C8.94341 15.9225 8.48709 16.0409 8.01118 16.1102L7.67684 14.7801ZM9.8907 10.2438C9.82745 10.2322 9.75516 10.2539 9.67384 10.3088C9.59251 10.3607 9.51721 10.433 9.44793 10.5254C9.37865 10.6149 9.31992 10.7146 9.27173 10.8243C9.22353 10.9341 9.20094 11.0395 9.20395 11.1406C9.20697 11.2388 9.2401 11.3197 9.30335 11.3833C9.36661 11.4468 9.44793 11.5002 9.54733 11.5436C9.64673 11.584 9.75817 11.6143 9.88167 11.6346C10.0082 11.6548 10.1332 11.6692 10.2567 11.6779C10.3802 11.6865 10.4961 11.6909 10.6046 11.6909H10.8847C10.8395 11.5118 10.7853 11.3399 10.722 11.1753C10.6618 11.0106 10.591 10.8633 10.5097 10.7334C10.4284 10.6034 10.3365 10.4951 10.2341 10.4084C10.1317 10.3218 10.0172 10.2669 9.8907 10.2438Z" fill="#535353"/>
<path d="M12.1687 11.6909H13.253C13.3825 11.6909 13.5256 11.6851 13.6822 11.6736C13.8388 11.6591 13.9849 11.6317 14.1205 11.5912C14.259 11.5508 14.3735 11.4916 14.4639 11.4136C14.5572 11.3327 14.6039 11.2273 14.6039 11.0973C14.6039 11.028 14.5813 10.9254 14.5361 10.7897C14.494 10.651 14.4367 10.4979 14.3645 10.3304C14.2952 10.16 14.2154 9.98236 14.125 9.7975C14.0376 9.61263 13.9503 9.43644 13.8629 9.26891L15.1551 8.65367C15.2395 8.83564 15.3223 9.02917 15.4036 9.23425C15.488 9.43933 15.5633 9.6473 15.6295 9.85815C15.6958 10.069 15.7485 10.2799 15.7877 10.4907C15.8298 10.6987 15.8509 10.898 15.8509 11.0886C15.8509 11.4468 15.7816 11.7515 15.6431 12.0028C15.5075 12.2512 15.3223 12.4549 15.0873 12.6137C14.8524 12.7697 14.5768 12.8824 14.2605 12.9517C13.9443 13.0239 13.6054 13.06 13.244 13.06H12.1687V11.6909ZM14.2741 7.22388L13.4247 8.03842L12.5482 7.20222L13.4157 6.36601L14.2741 7.18922L15.1235 6.37467L16 7.21088L15.1325 8.04709L14.2741 7.22388Z" fill="#535353"/>
<path d="M5.82052 7.38296C5.31213 7.38296 4.84955 7.31819 4.43279 7.18867C4.01603 7.05914 3.65839 6.86484 3.35986 6.60579C3.06428 6.34967 2.83373 6.0288 2.66821 5.64315C2.50564 5.26046 2.42436 4.81447 2.42436 4.30518C2.42436 3.81651 2.50121 3.32931 2.65491 2.84357C2.81156 2.35784 3.04211 1.88241 3.34655 1.41729L4.34412 2.13264C4.285 2.21212 4.21554 2.33135 4.13574 2.49031C4.05593 2.64928 3.97908 2.83033 3.90519 3.03345C3.8313 3.23658 3.76923 3.45295 3.71898 3.68256C3.66873 3.90924 3.64361 4.12856 3.64361 4.34051C3.64361 4.58485 3.69829 4.80564 3.80765 5.00287C3.91997 5.20011 4.06776 5.36938 4.25101 5.51068C4.43723 5.65199 4.65004 5.76238 4.88946 5.84186C5.13183 5.92135 5.38307 5.96403 5.64317 5.96992C5.95648 5.97581 6.25797 5.93459 6.54763 5.84628C6.83729 5.76091 7.09001 5.63874 7.30578 5.47977C7.52451 5.32375 7.69594 5.13682 7.82008 4.91897C7.94422 4.70407 8.00038 4.47004 7.98856 4.21687C7.98265 4.09029 7.959 3.94751 7.91762 3.78854C7.87624 3.62958 7.82599 3.46767 7.76688 3.30281C7.71072 3.13501 7.64717 2.97016 7.57623 2.80825C7.50825 2.64339 7.44322 2.49326 7.38115 2.35784C7.32204 2.22243 7.27031 2.10615 7.22598 2.009C7.18164 1.91185 7.15356 1.84562 7.14174 1.81029L8.34768 1.14351C8.35951 1.15529 8.38906 1.21269 8.43636 1.31573C8.48365 1.41876 8.53833 1.55271 8.6004 1.71756C8.66543 1.87947 8.73341 2.06493 8.80435 2.27394C8.87824 2.48296 8.94474 2.69933 9.00386 2.92306C9.06297 3.14679 9.11174 3.36905 9.15017 3.58984C9.19155 3.81062 9.21224 4.01375 9.21224 4.19921C9.21224 4.46121 9.18268 4.72174 9.12357 4.98079C9.06445 5.23985 8.97282 5.48713 8.84868 5.72264C8.7275 5.96109 8.5738 6.1804 8.38759 6.38058C8.20433 6.58371 7.98708 6.75887 7.73584 6.90606C7.4846 7.05619 7.19937 7.17247 6.88015 7.2549C6.56093 7.34027 6.20772 7.38296 5.82052 7.38296ZM5.85155 2.07082L4.86729 1.09052L5.85155 0.110229L6.83582 1.09052L5.85155 2.07082Z" fill="#535353"/>
</svg>
